<svg width="800" height="500" viewBox="0 0 800 500" fill="none" xmlns="http://www.w3.org/2000/svg">
<path d="M473.54 245.349C472.78 249.34 471.87 253.291 470.807 257.201C470.692 257.655 470.563 258.102 470.435 258.556L450.916 305.393C450.468 306.227 450.014 307.054 449.56 307.88C447.214 312.149 444.773 316.371 442.278 320.538C401.595 388.271 344.854 444.951 277.063 485.574L281.077 476.521C279.605 476.419 278.127 476.317 276.656 476.216C244.622 474.027 212.479 471.601 181.197 464.405C148.471 456.876 116.458 443.819 90.8098 422.169C65.155 400.512 46.3481 369.585 43.7379 336.124C42.8675 324.624 44.0311 313.061 47.1754 301.965C53.1888 280.606 66.3282 261.389 85.2844 250.018C115.061 232.163 153.902 235.801 185.292 250.655C216.676 265.502 242.222 290.079 267.165 314.23C241.981 271.067 206.918 234.487 164.851 207.49C150.912 198.573 136.119 190.631 124.268 179.078C112.424 167.531 103.684 151.342 105.78 134.937C108.159 116.329 123.407 102.208 138.681 91.3184C144.783 86.968 151.082 82.8413 157.577 79.0466C175.902 68.313 195.726 60.2154 216.662 57.2135C245.022 53.141 275.653 59.321 297.395 77.9692C321.89 98.9823 331.938 132.87 330.982 165.288C346.074 143.36 369.349 126.575 395.634 125.864C422.922 125.132 448.862 142.364 462.529 165.986C476.191 189.601 478.645 218.549 473.54 245.349Z" fill="#8E8E8E" fill-opacity="0.3"/>
<path d="M300.888 336.418C316.871 335.012 331.636 333.368 347.124 328.988C362.136 324.742 376.582 317.634 387.269 306.028C398.764 293.545 404.969 277.334 409.347 261.196C411.788 252.198 413.794 243.075 415.686 233.949C417.74 224.046 419.564 214.1 421.16 204.111C424.336 184.226 426.603 164.224 427.962 144.104C428.126 141.662 428.276 139.219 428.413 136.775C428.498 135.268 426.152 135.273 426.067 136.775C424.951 156.607 422.943 176.362 420.044 196.039C417.182 215.371 413.521 234.62 408.876 253.606C404.941 269.691 399.845 286.026 389.753 299.415C380.289 311.971 366.619 320.176 351.859 325.082C336.84 330.074 321.005 332.067 305.31 333.549C303.385 333.731 302.815 333.904 300.888 334.074C299.396 334.205 299.382 336.551 300.888 336.418Z" fill="white" fill-opacity="0.5"/>
<path d="M48.5295 303.694C68.6949 304.812 88.6553 308.328 107.988 314.166C127.33 319.993 145.916 328.079 163.363 338.257C180.221 348.1 195.87 359.877 209.994 373.349C223.701 386.431 235.917 400.99 246.42 416.759C256.97 432.567 265.713 449.508 272.485 467.264C273.311 469.437 274.107 471.621 274.872 473.817C275.366 475.232 277.633 474.624 277.134 473.194C270.798 455.063 262.445 437.7 252.233 421.432C242.022 405.162 230.039 390.074 216.503 376.443C202.75 362.601 187.444 350.393 170.889 340.06C136.128 318.419 96.7274 305.326 55.9218 301.859C53.4603 301.652 50.9962 301.483 48.5295 301.35C47.021 301.267 47.0256 303.612 48.5295 303.694Z" fill="white" fill-opacity="0.5"/>
<path d="M158.21 81.7948C171.104 85.8933 183.325 91.8623 194.483 99.5108C205.884 107.38 216.283 116.609 225.447 126.995C235.105 137.921 243.692 149.748 251.088 162.314C258.934 175.581 265.749 189.431 271.475 203.741C277.371 218.432 282.33 233.482 286.322 248.799C290.379 264.299 293.549 280.017 295.815 295.877C298.069 311.569 299.434 327.376 299.901 343.223C300.373 358.375 299.925 373.542 298.559 388.64C297.311 402.726 295.031 416.701 291.737 430.454C288.812 442.874 284.69 454.983 279.428 466.609C278.209 469.248 276.916 471.85 275.549 474.416C274.839 475.747 276.864 476.933 277.574 475.599C283.389 464.494 288.032 452.815 291.428 440.75C295.239 427.318 298.001 413.612 299.69 399.754C301.562 384.718 302.473 369.579 302.419 354.428C302.385 338.51 301.437 322.608 299.58 306.799C297.721 290.793 294.962 274.904 291.315 259.208C287.677 243.487 283.062 228.007 277.498 212.859C272.134 198.195 265.712 183.94 258.283 170.206C251.207 157.1 242.96 144.66 233.644 133.037C224.797 121.971 214.696 111.967 203.545 103.225C192.791 94.8201 180.909 87.9694 168.246 82.8738C165.151 81.6428 162.014 80.5295 158.834 79.534C157.391 79.0801 156.773 81.3428 158.21 81.7948Z" fill="white" fill-opacity="0.5"/>
<path d="M297.355 489.626C390.027 489.626 465.153 486.592 465.153 482.849C465.153 479.107 390.027 476.073 297.355 476.073C204.682 476.073 129.556 479.107 129.556 482.849C129.556 486.592 204.682 489.626 297.355 489.626Z" fill="#8E8E8E" fill-opacity="0.3"/>
<path d="M392.63 109.825C392.485 110.46 392.391 111.104 392.348 111.754L341.809 140.895L329.524 133.826L316.428 150.962L342.708 169.683L400.366 124.22C402.718 125.089 405.279 125.223 407.708 124.603C410.138 123.982 412.32 122.637 413.967 120.747C415.613 118.856 416.644 116.51 416.923 114.019C417.202 111.529 416.716 109.012 415.53 106.804C414.343 104.596 412.512 102.802 410.281 101.66C408.049 100.517 405.522 100.081 403.036 100.409C400.55 100.737 398.223 101.813 396.364 103.495C394.505 105.177 393.203 107.385 392.63 109.825Z" fill="#FFB8B8"/>
<path d="M277.529 127.704L317.324 156.051L335.122 133.748L296.438 102.725C294.774 101.39 292.854 100.409 290.798 99.8416C288.741 99.2743 286.59 99.1327 284.476 99.4254C282.362 99.7181 280.331 100.439 278.506 101.544C276.681 102.649 275.101 104.115 273.862 105.851C271.449 109.235 270.48 113.439 271.168 117.537C271.855 121.635 274.144 125.292 277.529 127.704Z" fill="#E63138"/>
<path d="M195.384 451.155L209.337 454.808L230.079 402.758L209.487 397.365L195.384 451.155Z" fill="#FFB8B8"/>
<path d="M232.851 474.805L189 463.321L193.439 446.387L220.348 453.434C224.841 454.611 228.683 457.524 231.028 461.532C233.373 465.539 234.029 470.314 232.851 474.805Z" fill="#2F2E41"/>
<path d="M319.415 461.084L333.614 458.549L330.588 402.604L309.632 406.345L319.415 461.084Z" fill="#FFB8B8"/>
<path d="M363.353 466.838L318.728 474.805L315.648 457.573L343.032 452.684C345.296 452.279 347.617 452.325 349.864 452.817C352.111 453.31 354.238 454.24 356.125 455.554C358.012 456.869 359.622 458.542 360.862 460.478C362.102 462.414 362.949 464.575 363.353 466.838Z" fill="#2F2E41"/>
<path d="M291.456 49.6468C294.954 50.498 297.801 54.0614 299.511 58.1896C301.087 62.5255 302.155 67.0297 302.692 71.6118C304.035 80.1449 305.325 89.3828 302.547 97.286C299.291 106.549 290.615 111.4 283.089 109.121C275.563 106.841 269.577 98.2827 267.532 88.4317C265.671 78.4779 266.87 68.1939 270.973 58.9351C273.111 54.0704 276.058 49.5823 279.974 47.3874C281.895 46.2264 284.184 45.8355 286.382 46.2931C288.579 46.7508 290.522 48.0232 291.819 49.8544" fill="#2F2E41"/>
<path d="M311.252 204.144L338.285 446.137L315.958 454.61L274.781 292.337L217.452 440.709L193.014 442.066C193.014 442.066 226.544 211.2 251.394 205.953L311.252 204.144Z" fill="#2F2E41"/>
<path d="M288.547 80.5298C304.506 80.5298 317.443 67.5992 317.443 51.6486C317.443 35.6979 304.506 22.7673 288.547 22.7673C272.588 22.7673 259.651 35.6979 259.651 51.6486C259.651 67.5992 272.588 80.5298 288.547 80.5298Z" fill="#FFB8B8"/>
<path d="M300.949 92.6462L269.722 88.5752C269.722 88.5752 249.357 113.001 250.715 155.067C252.072 197.133 247.32 210.024 247.32 210.024L312.429 211.2C303.017 198.265 342.384 123.975 300.949 92.6462Z" fill="#E63138"/>
<path d="M317.723 217.079C317.072 217.084 316.423 217.14 315.78 217.247L275.832 174.743L279.905 161.173L260.219 152.353L247.999 182.206L305.474 227.901C305.165 230.388 305.621 232.91 306.781 235.132C307.941 237.353 309.751 239.169 311.969 240.338C314.187 241.507 316.708 241.974 319.198 241.675C321.687 241.377 324.027 240.328 325.906 238.669C327.785 237.009 329.113 234.817 329.715 232.384C330.317 229.951 330.164 227.393 329.276 225.049C328.387 222.705 326.806 220.687 324.743 219.264C322.679 217.84 320.231 217.078 317.723 217.079Z" fill="#FFB8B8"/>
<path d="M273.969 109.182L255.467 154.388L281.262 166.601L302.625 121.863C303.544 119.939 304.061 117.847 304.142 115.716C304.224 113.585 303.87 111.459 303.101 109.47C302.332 107.48 301.165 105.669 299.671 104.146C298.178 102.623 296.388 101.421 294.414 100.614C292.508 99.8345 290.468 99.4382 288.409 99.4472C286.351 99.4562 284.314 99.8703 282.416 100.666C280.517 101.462 278.794 102.623 277.345 104.085C275.896 105.546 274.749 107.278 273.969 109.182Z" fill="#E63138"/>
<path d="M280.988 77.9048C285.516 75.2941 285.999 68.9965 285.384 63.8085C284.768 58.6204 283.74 52.8367 286.792 48.5947C290.433 43.5319 297.749 43.4311 303.986 43.2658C310.222 43.1006 317.817 41.2754 319.432 35.2528C320.5 31.2734 318.216 27.003 314.938 24.505C311.66 22.007 307.558 20.9026 303.572 19.853C294.655 17.5051 285.448 15.1374 276.317 16.4279C267.273 17.7061 259.097 22.4917 253.556 29.7495C248.016 37.0072 245.558 46.1534 246.713 55.209C248.191 66.7928 250.334 71.851 248.927 76.9586C246.307 86.4719 235.008 92.5833 234.783 102.448C234.607 110.164 241.426 116.117 248.08 120.035C253.357 123.143 259.052 125.78 265.134 126.507C271.216 127.235 277.764 125.842 282.294 121.722C288.138 116.408 289.583 107.53 287.908 99.8137C286.232 92.0973 281.934 85.2448 277.682 78.59" fill="#2F2E41"/>
<g filter="url(#filter0_d_182_177)">
<circle cx="87" cy="158" r="33" fill="white"/>
</g>
<path d="M107.464 170.548L99.555 162.74C99.17 162.357 98.7132 162.054 98.2107 161.847C97.7083 161.641 97.1701 161.536 96.627 161.538H96.5992C96.052 161.54 95.5106 161.65 95.0062 161.862C94.5018 162.075 94.0445 162.385 93.6608 162.775C91.8925 164.564 90.8868 166.97 90.855 169.486C90.8233 172.001 91.768 174.431 93.4907 176.265C93.574 176.355 93.6608 176.442 93.7477 176.529C94.2287 177.007 94.7596 177.432 95.3315 177.797C96.895 178.807 98.7181 179.341 100.58 179.335H100.639C101.916 179.331 103.18 179.073 104.358 178.577C105.535 178.081 106.603 177.357 107.498 176.446C108.274 175.658 108.707 174.595 108.7 173.49C108.694 172.384 108.249 171.326 107.464 170.548ZM107.005 175.956C105.537 177.435 103.603 178.363 101.531 178.583C99.4582 178.803 97.3731 178.302 95.6267 177.165C95.1272 176.834 94.6608 176.456 94.2339 176.036C92.5299 174.353 91.5641 172.062 91.5491 169.667C91.5341 167.272 92.4712 164.969 94.1541 163.265C94.4739 162.939 94.8555 162.679 95.2765 162.502C95.6974 162.325 96.1495 162.234 96.6062 162.233H96.627C97.0792 162.231 97.5273 162.319 97.9456 162.491C98.364 162.662 98.7444 162.915 99.0652 163.233L106.974 171.045C107.629 171.692 108 172.573 108.005 173.494C108.011 174.415 107.652 175.3 107.005 175.956Z" fill="#3F3D56"/>
<path d="M81.5148 144.922L73.6062 137.111C72.8278 136.339 71.7749 135.906 70.6783 135.909H70.654C70.106 135.911 69.564 136.022 69.059 136.235C68.5541 136.448 68.0963 136.758 67.7121 137.149C66.2502 138.634 65.3023 140.548 65.0073 142.61C64.7123 144.673 65.0857 146.776 66.0728 148.611L66.0762 148.614C66.4834 149.365 66.9892 150.058 67.5801 150.674C67.6461 150.75 67.7225 150.827 67.799 150.903C69.6151 152.706 72.0719 153.715 74.6309 153.71H74.6934C75.9712 153.704 77.2353 153.446 78.4127 152.949C79.59 152.453 80.6574 151.728 81.5531 150.816C81.9376 150.427 82.2416 149.965 82.4478 149.458C82.654 148.951 82.7583 148.409 82.7548 147.861C82.7512 147.314 82.6399 146.773 82.4272 146.269C82.2144 145.764 81.9044 145.307 81.5148 144.922ZM81.0564 150.33C80.225 151.176 79.2344 151.849 78.1417 152.309C77.049 152.77 75.8758 153.01 74.6899 153.015H74.6309C72.8499 153.014 71.1089 152.487 69.6268 151.499C68.1447 150.512 66.9877 149.108 66.3013 147.465C65.6149 145.821 65.4298 144.012 65.7692 142.263C66.1086 140.515 66.9574 138.906 68.2088 137.639C68.8563 136.984 69.7372 136.613 70.6579 136.607C71.5787 136.602 72.4642 136.961 73.12 137.608L81.0286 145.415C81.6829 146.064 82.0532 146.946 82.0584 147.867C82.0636 148.788 81.7033 149.674 81.0564 150.33Z" fill="#3F3D56"/>
<path d="M107.969 173.003L99.25 164.391C98.6783 163.828 97.9064 163.514 97.1037 163.519C96.301 163.524 95.5331 163.847 94.9684 164.418C94.262 165.131 93.7032 165.977 93.3239 166.907C92.9446 167.837 92.7523 168.832 92.7579 169.836C92.7636 170.841 92.9671 171.834 93.3569 172.759C93.7467 173.685 94.3151 174.524 95.0295 175.23C95.7439 175.935 96.5905 176.493 97.5207 176.872C98.4509 177.25 99.4465 177.441 100.451 177.434C101.455 177.427 102.448 177.223 103.373 176.832C104.298 176.441 105.137 175.872 105.841 175.157L107.969 173.003Z" fill="#E63138"/>
<path d="M82.0219 147.375L73.3029 138.764C72.7312 138.201 71.9593 137.887 71.1566 137.892C70.3539 137.897 69.586 138.22 69.0213 138.791C68.3148 139.504 67.756 140.35 67.3767 141.28C66.9974 142.21 66.8051 143.205 66.8108 144.209C66.8165 145.213 67.02 146.207 67.4098 147.132C67.7995 148.057 68.3679 148.897 69.0824 149.603C69.7968 150.308 70.6433 150.866 71.5735 151.244C72.5037 151.623 73.4994 151.814 74.5035 151.807C75.5076 151.8 76.5006 151.596 77.4256 151.205C78.3506 150.814 79.1895 150.245 79.8943 149.529L82.0219 147.375Z" fill="#E63138"/>
<path d="M98.388 178.366L98.1796 178.915C97.2001 178.543 96.2508 178.171 95.3315 177.797C79.0489 171.152 71.2758 163.376 66.0763 148.614L66.0728 148.611C65.8262 147.916 65.5866 147.205 65.3539 146.478L65.9027 146.301C66.0862 147 66.3544 147.675 66.7015 148.309C66.9863 149.118 67.2792 149.907 67.5802 150.674C72.4671 163.133 79.6741 170.253 93.4907 176.265C94.1854 176.567 94.8974 176.867 95.6268 177.165C96.4737 177.716 97.407 178.123 98.388 178.366Z" fill="#3F3D56"/>
<path d="M73.4613 153.077L72.973 153.572L91.0124 171.389L91.5007 170.894L73.4613 153.077Z" fill="#3F3D56"/>
<g filter="url(#filter1_d_182_177)">
<circle cx="180" cy="186" r="46" fill="white"/>
</g>
<path d="M206.402 202.254H152.838C152.077 202.252 151.348 201.949 150.81 201.411C150.272 200.874 149.969 200.145 149.967 199.384V173.284C149.969 172.523 150.272 171.794 150.81 171.256C151.348 170.719 152.077 170.415 152.837 170.413H206.402C207.163 170.415 207.892 170.718 208.43 171.256C208.968 171.794 209.271 172.523 209.273 173.284V199.384C209.271 200.144 208.968 200.873 208.43 201.411C207.892 201.949 207.163 202.252 206.402 202.254ZM152.838 171.214C152.289 171.216 151.763 171.434 151.376 171.822C150.988 172.21 150.769 172.736 150.768 173.284V199.384C150.769 199.932 150.988 200.458 151.376 200.846C151.764 201.233 152.289 201.452 152.838 201.453H206.402C206.95 201.452 207.476 201.233 207.864 200.845C208.252 200.458 208.47 199.932 208.472 199.383V173.284C208.47 172.735 208.252 172.21 207.864 171.822C207.476 171.434 206.95 171.216 206.402 171.214L152.838 171.214Z" fill="#3F3D56"/>
<path d="M182.491 198.397C171.927 198.397 160.911 198.296 156.801 198.23C156.26 198.219 155.745 197.997 155.366 197.611C154.987 197.226 154.774 196.707 154.771 196.166V174.562C154.772 174.368 154.849 174.182 154.985 174.045C155.122 173.908 155.308 173.831 155.501 173.83H203.737C203.93 173.83 204.116 173.907 204.253 174.044C204.39 174.18 204.468 174.366 204.468 174.56V189.218C204.459 191.611 203.513 193.905 201.832 195.608C200.151 197.311 197.87 198.287 195.477 198.327C191.647 198.377 187.111 198.397 182.491 198.397Z" fill="#E63138"/>
<path d="M200.873 187.872H157.289C156.924 187.871 156.568 187.757 156.27 187.547C155.972 187.337 155.745 187.04 155.622 186.696L150.689 172.857C150.594 172.59 150.564 172.304 150.602 172.023C150.641 171.743 150.746 171.475 150.909 171.243C151.072 171.012 151.288 170.822 151.54 170.692C151.791 170.561 152.07 170.492 152.353 170.492L206.833 170.416C207.092 170.416 207.348 170.472 207.583 170.582C207.818 170.691 208.025 170.85 208.192 171.049C208.358 171.247 208.479 171.48 208.546 171.73C208.613 171.98 208.624 172.242 208.579 172.497L208.621 172.515L208.464 172.88L208.463 172.884L202.499 186.799C202.363 187.117 202.137 187.389 201.848 187.58C201.559 187.77 201.22 187.872 200.873 187.872ZM206.836 171.217L152.355 171.293C152.2 171.293 152.047 171.33 151.909 171.402C151.771 171.474 151.653 171.577 151.564 171.704C151.474 171.831 151.417 171.978 151.396 172.131C151.375 172.285 151.391 172.442 151.443 172.588L156.376 186.427C156.444 186.615 156.568 186.778 156.731 186.893C156.895 187.008 157.09 187.07 157.29 187.071H200.873C201.063 187.071 201.248 187.015 201.407 186.911C201.565 186.807 201.689 186.658 201.763 186.484L207.727 172.568C207.79 172.421 207.816 172.26 207.801 172.1C207.787 171.94 207.733 171.786 207.645 171.652C207.557 171.519 207.437 171.409 207.295 171.333C207.154 171.257 206.996 171.217 206.836 171.217Z" fill="#3F3D56"/>
<path d="M179.539 190.884C181.423 190.884 182.951 189.356 182.951 187.471C182.951 185.586 181.423 184.058 179.539 184.058C177.654 184.058 176.126 185.586 176.126 187.471C176.126 189.356 177.654 190.884 179.539 190.884Z" fill="white"/>
<g filter="url(#filter2_d_182_177)">
<circle cx="141.5" cy="81.5" r="43.5" fill="white"/>
</g>
<path d="M153.168 60.4135V102.586C153.168 103.462 152.818 104.303 152.194 104.926C151.57 105.548 150.723 105.903 149.836 105.912C149.824 105.913 149.812 105.914 149.799 105.914H144.83C140.854 105.914 137.041 104.353 134.23 101.576C131.418 98.7993 129.839 95.0328 129.839 91.1055V60.4135C129.839 59.5311 130.194 58.6848 130.826 58.0609C131.457 57.437 132.314 57.0864 133.207 57.0864H135.221C134.288 59.7743 146.948 60.9059 147.643 57.0864H149.799C150.693 57.0864 151.549 57.437 152.181 58.0609C152.813 58.6849 153.168 59.5311 153.168 60.4135Z" fill="#E63138"/>
<path d="M138.519 53.8313C138.52 53.6875 138.565 53.5496 138.646 53.4479C138.727 53.3462 138.837 53.289 138.951 53.2888H141.887C142.001 53.2892 142.11 53.3466 142.191 53.4483C142.272 53.55 142.317 53.6877 142.317 53.8313C142.317 53.975 142.272 54.1127 142.191 54.2144C142.11 54.3161 142.001 54.3735 141.887 54.3739H138.951C138.837 54.3737 138.727 54.3165 138.646 54.2148C138.565 54.1131 138.52 53.9752 138.519 53.8313Z" fill="#3F3D56"/>
<path d="M150.629 111.339H131.931C130.481 111.337 129.09 110.757 128.064 109.726C127.038 108.695 126.461 107.296 126.46 105.838V76.2822C126.357 76.2081 126.273 76.1104 126.216 75.9973C126.158 75.8842 126.128 75.7589 126.128 75.6319V72.6594C126.128 72.5323 126.158 72.4071 126.216 72.294C126.273 72.1809 126.357 72.0833 126.46 72.0092V71.2114C126.357 71.1373 126.273 71.0397 126.216 70.9266C126.158 70.8136 126.128 70.6883 126.128 70.5613V67.5886C126.128 67.4615 126.158 67.3363 126.216 67.2232C126.273 67.1101 126.357 67.0125 126.46 66.9384V65.4965C126.333 65.4281 126.227 65.3263 126.153 65.202C126.08 65.0778 126.041 64.9357 126.041 64.791V61.8186C126.041 61.6739 126.08 61.5318 126.153 61.4075C126.227 61.2832 126.333 61.1814 126.46 61.1129V57.1619C126.461 55.7035 127.038 54.3053 128.064 53.2741C129.09 52.2428 130.481 51.6628 131.931 51.6611H150.629C152.08 51.6628 153.471 52.2429 154.496 53.2741C155.522 54.3053 156.099 55.7036 156.101 57.162V65.7741C156.199 65.8361 156.28 65.9222 156.337 66.0244C156.393 66.1266 156.423 66.2416 156.423 66.3584V72.0263C156.423 72.1432 156.393 72.2582 156.337 72.3604C156.28 72.4626 156.199 72.5488 156.101 72.6108V105.838C156.099 107.296 155.522 108.695 154.496 109.726C153.471 110.757 152.08 111.337 150.629 111.339ZM131.931 52.3923C130.674 52.3938 129.468 52.8967 128.578 53.7909C127.689 54.6851 127.188 55.8974 127.187 57.162V61.7348L126.837 61.7484C126.819 61.7491 126.802 61.7567 126.789 61.7698C126.776 61.7828 126.769 61.8003 126.769 61.8186V64.791C126.769 64.8093 126.776 64.8267 126.789 64.8398C126.802 64.8528 126.819 64.8605 126.837 64.8612L127.187 64.8746V67.4518L126.91 67.5204C126.895 67.5241 126.881 67.5328 126.872 67.5451C126.862 67.5575 126.856 67.5727 126.856 67.5886V70.5612C126.856 70.5771 126.862 70.5924 126.872 70.6047C126.881 70.617 126.895 70.6257 126.91 70.6294L127.187 70.698V72.5226L126.91 72.5912C126.895 72.5949 126.881 72.6036 126.872 72.6159C126.862 72.6282 126.856 72.6435 126.856 72.6594V75.6318C126.856 75.6477 126.862 75.663 126.871 75.6754C126.881 75.6877 126.895 75.6965 126.91 75.7002L127.187 75.7688V105.838C127.188 107.103 127.689 108.315 128.578 109.209C129.468 110.103 130.674 110.606 131.931 110.608H150.629C151.887 110.606 153.093 110.103 153.982 109.209C154.872 108.315 155.372 107.103 155.373 105.838V71.9847H155.695V66.4002H155.373V57.1619C155.372 55.8974 154.872 54.6851 153.982 53.7909C153.093 52.8967 151.887 52.3938 150.629 52.3923L131.931 52.3923Z" fill="#3F3D56"/>
<path d="M143.402 54.3739C143.702 54.3739 143.945 54.131 143.945 53.8313C143.945 53.5317 143.702 53.2888 143.402 53.2888C143.102 53.2888 142.859 53.5317 142.859 53.8313C142.859 54.131 143.102 54.3739 143.402 54.3739Z" fill="#3F3D56"/>
<path d="M141.775 101.031C143.572 101.031 145.03 99.6951 145.03 98.0471C145.03 96.3992 143.572 95.0632 141.775 95.0632C139.977 95.0632 138.519 96.3992 138.519 98.0471C138.519 99.6951 139.977 101.031 141.775 101.031Z" fill="white"/>
<defs>
<filter id="filter0_d_182_177" x="34" y="125" width="86" height="86" filterUnits="userSpaceOnUse" color-interpolation-filters="sRGB">
<feFlood flood-opacity="0" result="BackgroundImageFix"/>
<feColorMatrix in="SourceAlpha" type="matrix" values="0 0 0 0 0 0 0 0 0 0 0 0 0 0 0 0 0 0 127 0" result="hardAlpha"/>
<feOffset dx="-10" dy="10"/>
<feGaussianBlur stdDeviation="5"/>
<feComposite in2="hardAlpha" operator="out"/>
<feColorMatrix type="matrix" values="0 0 0 0 0.5875 0 0 0 0 0.5875 0 0 0 0 0.5875 0 0 0 0.25 0"/>
<feBlend mode="normal" in2="BackgroundImageFix" result="effect1_dropShadow_182_177"/>
<feBlend mode="normal" in="SourceGraphic" in2="effect1_dropShadow_182_177" result="shape"/>
</filter>
<filter id="filter1_d_182_177" x="114" y="140" width="112" height="112" filterUnits="userSpaceOnUse" color-interpolation-filters="sRGB">
<feFlood flood-opacity="0" result="BackgroundImageFix"/>
<feColorMatrix in="SourceAlpha" type="matrix" values="0 0 0 0 0 0 0 0 0 0 0 0 0 0 0 0 0 0 127 0" result="hardAlpha"/>
<feOffset dx="-10" dy="10"/>
<feGaussianBlur stdDeviation="5"/>
<feComposite in2="hardAlpha" operator="out"/>
<feColorMatrix type="matrix" values="0 0 0 0 0.5875 0 0 0 0 0.5875 0 0 0 0 0.5875 0 0 0 0.25 0"/>
<feBlend mode="normal" in2="BackgroundImageFix" result="effect1_dropShadow_182_177"/>
<feBlend mode="normal" in="SourceGraphic" in2="effect1_dropShadow_182_177" result="shape"/>
</filter>
<filter id="filter2_d_182_177" x="78" y="38" width="107" height="107" filterUnits="userSpaceOnUse" color-interpolation-filters="sRGB">
<feFlood flood-opacity="0" result="BackgroundImageFix"/>
<feColorMatrix in="SourceAlpha" type="matrix" values="0 0 0 0 0 0 0 0 0 0 0 0 0 0 0 0 0 0 127 0" result="hardAlpha"/>
<feOffset dx="-10" dy="10"/>
<feGaussianBlur stdDeviation="5"/>
<feComposite in2="hardAlpha" operator="out"/>
<feColorMatrix type="matrix" values="0 0 0 0 0.5875 0 0 0 0 0.5875 0 0 0 0 0.5875 0 0 0 0.25 0"/>
<feBlend mode="normal" in2="BackgroundImageFix" result="effect1_dropShadow_182_177"/>
<feBlend mode="normal" in="SourceGraphic" in2="effect1_dropShadow_182_177" result="shape"/>
</filter>
</defs>
</svg>
