<svg width="234" height="67" viewBox="0 0 234 67" fill="none" xmlns="http://www.w3.org/2000/svg">
<path d="M26.5692 59C30.4182 65.6667 40.0407 65.6667 43.8897 59L69.0045 15.5C72.8535 8.83332 68.0422 0.5 60.3442 0.5H10.1147C2.41673 0.5 -2.39451 8.83333 1.4545 15.5L26.5692 59Z" fill="url(#paint0_linear_3_12)"/>
<path d="M223.68 66.8969C231.378 66.8969 236.189 58.5636 232.34 51.8969L207.475 8.82965C203.626 2.16298 194.003 2.16299 190.154 8.82966L165.289 51.8969C161.44 58.5636 166.252 66.8969 173.95 66.8969H223.68Z" fill="url(#paint1_linear_3_12)"/>
<path d="M149.413 34.8969C149.413 52.57 135.086 66.8969 117.413 66.8969C99.7397 66.8969 85.4128 52.57 85.4128 34.8969C85.4128 17.2238 99.7397 2.89693 117.413 2.89693C135.086 2.89693 149.413 17.2238 149.413 34.8969Z" fill="url(#paint2_linear_3_12)"/>
<defs>
<linearGradient id="paint0_linear_3_12" x1="116.897" y1="0.5" x2="116.897" y2="66.8969" gradientUnits="userSpaceOnUse">
<stop stop-color="#9C6DFF"/>
<stop offset="1" stop-color="#FFCC81"/>
</linearGradient>
<linearGradient id="paint1_linear_3_12" x1="116.897" y1="0.5" x2="116.897" y2="66.8969" gradientUnits="userSpaceOnUse">
<stop stop-color="#9C6DFF"/>
<stop offset="1" stop-color="#FFCC81"/>
</linearGradient>
<linearGradient id="paint2_linear_3_12" x1="116.897" y1="0.5" x2="116.897" y2="66.8969" gradientUnits="userSpaceOnUse">
<stop stop-color="#9C6DFF"/>
<stop offset="1" stop-color="#FFCC81"/>
</linearGradient>
</defs>
</svg>
