<svg width="234" height="67" viewBox="0 0 234 67" fill="none" xmlns="http://www.w3.org/2000/svg">
<path d="M26.4694 58.5C30.3184 65.1667 39.9409 65.1667 43.7899 58.5L68.9047 15C72.7537 8.33332 67.9424 0 60.2444 0H10.0149C2.3169 0 -2.49433 8.33333 1.35467 15L26.4694 58.5Z" fill="#202020"/>
<path d="M223.58 66.3969C231.278 66.3969 236.089 58.0636 232.24 51.3969L207.375 8.32965C203.526 1.66298 193.904 1.66299 190.055 8.32966L165.19 51.3969C161.341 58.0636 166.152 66.3969 173.85 66.3969H223.58Z" fill="#202020"/>
<path d="M149.313 34.3969C149.313 52.07 134.986 66.3969 117.313 66.3969C99.6398 66.3969 85.313 52.07 85.313 34.3969C85.313 16.7238 99.6398 2.39693 117.313 2.39693C134.986 2.39693 149.313 16.7238 149.313 34.3969Z" fill="#202020"/>
</svg>
